<?xml version="1.0"?>
<svg xmlns="http://www.w3.org/2000/svg" id="Outline" viewBox="0 0 512 512" width="512" height="512"><path d="M296,16H216a8,8,0,0,0-8,8V52.959A232.152,232.152,0,0,0,24,280V456a8,8,0,0,0,8,8h9.376a24,24,0,1,0,45.248,0H417.376a24,24,0,1,0,45.248,0H480a8,8,0,0,0,8-8V280A232.152,232.152,0,0,0,304,52.959V24A8,8,0,0,0,296,16ZM224,48V32h64V50.192a234.673,234.673,0,0,0-64,0ZM64,480a8,8,0,1,1,8-8A8.009,8.009,0,0,1,64,480Zm376,0a8,8,0,1,1,8-8A8.009,8.009,0,0,1,440,480Zm32-32H40V432H472ZM232,208a24.028,24.028,0,0,1,24,24v39.475a39.788,39.788,0,0,0-24,8.022V240a8,8,0,0,0-16,0v96H192V240a8,8,0,0,0-16,0v96H152V240a8,8,0,0,0-16,0v96H112V232a24.028,24.028,0,0,1,24-24Zm-72-16V168a8.009,8.009,0,0,1,8-8h32a8.009,8.009,0,0,1,8,8v24Zm72,199.475v-80a24.027,24.027,0,0,1,24-24h8V416h-8v-.525A24.027,24.027,0,0,1,232,391.475ZM216,352v39.475A39.788,39.788,0,0,0,224.435,416H72V352Zm176-64.525V416H280V287.475Zm-80-16V248a8.009,8.009,0,0,1,8-8h32a8.009,8.009,0,0,1,8,8v23.475ZM408,416V287.475h8a24.027,24.027,0,0,1,24,24v80a24.027,24.027,0,0,1-24,24V416Zm.735-288.735A214.587,214.587,0,0,1,472,280V416H447.565A39.788,39.788,0,0,0,456,391.475v-80a40.045,40.045,0,0,0-40-40H376V248a24.028,24.028,0,0,0-24-24H320a24.028,24.028,0,0,0-24,24v23.475H272V232a40.045,40.045,0,0,0-40-40h-8V168a24.028,24.028,0,0,0-24-24H168a24.028,24.028,0,0,0-24,24v24h-8a40.045,40.045,0,0,0-40,40V336H64a8,8,0,0,0-8,8v72H40V280A216,216,0,0,1,408.735,127.265Z"/></svg>
